HIERARCHY
ROOT root
{
	OFFSET 0.000000 0.000000 0.000000
	CHANNELS 6 Xposition Yposition Zposition Zrotation Yrotation Xrotation
	JOINT lhip
	{
		OFFSET 0.058581 -0.082280 -0.017664
		CHANNELS 3 Zrotation Yrotation Xrotation
		JOINT lknee
		{
			OFFSET 0.043451 -0.386469 0.008037
			CHANNELS 3 Zrotation Yrotation Xrotation
			JOINT lankle
			{
				OFFSET -0.014790 -0.426874 -0.037428
				CHANNELS 3 Zrotation Yrotation Xrotation
				JOINT ltoe
				{
					OFFSET 0.041054 -0.060286 0.122042
					CHANNELS 3 Zrotation Yrotation Xrotation
					End Site
					{
						OFFSET 0.000000 0.000000 0.000000
					}
				}
			}
		}
	}
	JOINT rhip
	{
		OFFSET -0.060310 -0.090513 -0.013543
		CHANNELS 3 Zrotation Yrotation Xrotation
		JOINT rknee
		{
			OFFSET -0.043257 -0.383688 -0.004843
			CHANNELS 3 Zrotation Yrotation Xrotation
			JOINT rankle
			{
				OFFSET 0.019056 -0.420046 -0.034562
				CHANNELS 3 Zrotation Yrotation Xrotation
				JOINT rtoe
				{
					OFFSET -0.034840 -0.062106 0.130323
					CHANNELS 3 Zrotation Yrotation Xrotation
					End Site
					{
						OFFSET 0.000000 0.000000 0.000000
					}
				}
			}
		}
	}
	JOINT lowerback
	{
		OFFSET 0.004439 0.124404 -0.038385
		CHANNELS 3 Zrotation Yrotation Xrotation
		JOINT upperback
		{
			OFFSET 0.004488 0.137956 0.026820
			CHANNELS 3 Zrotation Yrotation Xrotation
			JOINT chest
			{
				OFFSET -0.002265 0.056032 0.002855
				CHANNELS 3 Zrotation Yrotation Xrotation
				JOINT lowerneck
				{
					OFFSET -0.013390 0.211636 -0.033468
					CHANNELS 3 Zrotation Yrotation Xrotation
					JOINT upperneck
					{
						OFFSET 0.010113 0.088937 0.050410
						CHANNELS 3 Zrotation Yrotation Xrotation
						End Site
						{
							OFFSET 0.000000 0.000000 0.000000
						}
					}
				}
				JOINT lclavicle
				{
					OFFSET 0.071702 0.114000 -0.018898
					CHANNELS 3 Zrotation Yrotation Xrotation
					JOINT lshoulder
					{
						OFFSET 0.122921 0.045205 -0.019046
						CHANNELS 3 Zrotation Yrotation Xrotation
						JOINT lelbow
						{
							OFFSET 0.255332 -0.015649 -0.022946
							CHANNELS 3 Zrotation Yrotation Xrotation
							JOINT lwrist
							{
								OFFSET 0.265709 0.012698 -0.007375
								CHANNELS 3 Zrotation Yrotation Xrotation
								End Site
								{
									OFFSET 0.000000 0.000000 0.000000
								}
							}
						}
					}
				}
				JOINT rclavicle
				{
					OFFSET -0.082954 0.112472 -0.023707
					CHANNELS 3 Zrotation Yrotation Xrotation
					JOINT rshoulder
					{
						OFFSET -0.113228 0.046853 -0.008472
						CHANNELS 3 Zrotation Yrotation Xrotation
						JOINT relbow
						{
							OFFSET -0.260127 -0.014369 -0.031269
							CHANNELS 3 Zrotation Yrotation Xrotation
							JOINT rwrist
							{
								OFFSET -0.269108 0.006794 -0.006027
								CHANNELS 3 Zrotation Yrotation Xrotation
								End Site
								{
									OFFSET 0.000000 0.000000 0.000000
								}
							}
						}
					}
				}
			}
		}
	}
}
MOTION
Frames: 11
Frame Time: 0.033333
0.451942 -0.022664 0.981559 -61.148578 -0.715783 93.389018 -0.088123 -3.726137 12.027221 -6.117151 -26.601176 10.314074 -0.961846 -2.221804 -15.206770 0.000000 -0.000000 0.000000 0.921138 0.714353 -26.816693 -1.065531 -9.360528 7.054485 1.802415 -19.007929 5.570396 0.000000 -0.000000 0.000000 2.593685 -6.276074 12.590472 -3.364921 -1.200823 -7.957333 -1.763136 -4.829534 3.228874 2.993170 -13.432340 -8.907712 -1.889133 -3.726871 2.229203 -18.738015 6.339466 0.974338 -53.662899 -3.902739 6.304606 22.874205 -49.422188 -5.359702 17.955390 -20.030381 -24.173292 -0.373845 0.582155 -17.297948 6.997317 23.399158 -23.531797 -63.160762 27.266602 -67.045397 -32.049904 9.206335 -9.277480 
0.413869 -0.026960 0.985701 -61.406026 -0.390702 93.657937 0.679453 -3.974812 12.499311 -6.834597 -27.008341 12.935084 -3.054270 -2.527063 -11.498020 0.000000 -0.000000 0.000000 1.352930 2.805332 -26.480497 -0.106908 -6.434337 9.599492 -1.006015 -19.750086 5.297686 0.000000 -0.000000 0.000000 3.461403 -6.215607 11.440168 -4.087158 0.526453 -6.628126 -2.168665 -4.232139 2.860919 4.164809 -15.304298 -9.058187 -1.904402 -3.775598 1.904583 -18.508650 6.227957 0.878492 -54.970188 -3.026410 6.654235 24.053400 -46.156147 -6.059996 17.937854 -19.290423 -24.856630 -3.251557 2.608283 -17.902754 2.649549 25.973685 -26.524620 -57.254467 25.290303 -61.493886 -28.590593 8.331970 -7.271710 
0.374794 -0.030476 0.991963 -61.921219 0.353699 93.608226 2.250948 -3.454867 11.396763 -8.425125 -26.490652 18.133277 -8.456671 -4.433337 -5.803994 0.000000 -0.000000 0.000000 3.088939 3.495601 -25.091307 -0.346760 -7.447443 11.932357 -2.391896 -17.710044 2.741674 0.000000 -0.000000 0.000000 4.481785 -5.799587 10.758068 -4.657849 1.703781 -5.054240 -2.353914 -3.455216 1.932083 5.039409 -16.374022 -8.247485 -1.332944 -4.512412 0.922559 -17.648135 5.252918 0.843738 -57.174557 -1.140942 6.487867 26.071380 -42.399796 -7.718094 17.303294 -18.016983 -24.872380 -6.657026 5.199341 -17.708926 -0.228589 26.993718 -29.845971 -50.615014 23.873253 -54.559836 -23.943765 6.927310 -6.615368 
0.335634 -0.033089 0.998220 -62.053932 0.370767 93.664668 3.257923 -3.453155 8.640047 -10.900345 -25.382538 25.008578 -13.725432 -6.018550 2.698777 0.000000 -0.000000 0.000000 4.138645 3.309084 -22.673453 0.011944 -7.538663 11.923090 -3.858680 -16.504793 1.131195 0.000000 -0.000000 0.000000 4.635704 -4.990777 10.631812 -4.999294 1.949859 -4.805171 -2.560865 -2.746856 1.369571 5.582739 -17.208877 -8.070284 -0.545565 -5.145219 1.317816 -16.211259 4.437424 0.949373 -59.597449 0.885097 5.269632 27.047938 -38.851719 -8.645225 13.653581 -17.071670 -23.597765 -9.541569 7.429039 -18.202465 -1.101306 28.968512 -32.615602 -50.233047 20.622634 -47.139810 -13.789570 6.683595 9.087231 
0.296707 -0.035748 1.002181 -61.794443 0.522884 93.784573 4.739210 -3.432812 4.612481 -13.484841 -23.784246 33.440431 -18.540869 -9.439866 9.824342 0.000000 -0.000000 0.000000 5.401969 2.397397 -20.410457 0.588314 -7.388632 12.213597 -5.198336 -15.469535 -0.654076 0.000000 -0.000000 0.000000 4.043572 -3.262607 9.809439 -3.382277 1.060308 -2.784559 -2.680880 -1.987662 -0.312329 6.069433 -17.449015 -8.271619 -1.900380 -7.041914 2.585182 -15.429997 3.626557 1.073143 -62.282759 2.142536 1.551270 28.046574 -35.544623 -7.501404 4.074118 -16.887654 -21.325769 -10.166360 8.697196 -20.491011 -3.232190 33.170740 -40.753611 -72.151124 18.407882 -54.074464 8.352380 3.374356 18.677714 
0.259632 -0.039289 1.004791 -61.736941 0.782947 93.495057 5.514309 -3.041490 0.793810 -15.466592 -23.021509 41.972415 -19.470228 -9.044165 10.623749 0.000000 -0.000000 0.000000 6.945662 1.212099 -17.513858 0.744953 -7.502259 11.817288 -5.291779 -14.435600 -2.930164 0.000000 -0.000000 0.000000 3.481740 -1.932450 10.979206 -2.911045 0.942658 -5.891605 -1.927642 -2.379989 0.567973 6.817128 -17.667160 -5.964644 -2.682281 -7.647935 2.404657 -14.863151 4.972684 1.165114 -62.688142 4.148852 1.727142 25.213180 -34.439323 -1.763798 8.720672 -15.808861 -24.429049 -11.738231 6.458914 -23.374355 -5.313873 35.390493 -41.799716 -71.812335 22.495268 -59.562316 -7.433282 7.536935 1.877229 
0.223475 -0.042734 1.006582 -62.404050 0.888935 93.229317 6.346028 -3.662105 -2.512438 -15.495217 -18.985374 47.089871 -15.757051 -7.474896 5.582524 0.000000 -0.000000 0.000000 8.118522 0.511128 -14.513326 1.328329 -5.667853 11.175845 -5.487684 -15.359716 -4.004547 0.000000 -0.000000 0.000000 2.835820 -1.439076 10.421331 -2.957713 0.465159 -6.484701 -1.325126 -2.766343 0.857116 6.601115 -20.758548 -3.564143 -1.546811 -3.902181 3.003215 -14.109591 6.720201 0.560497 -64.652051 5.877120 -0.601510 27.334111 -32.756839 -5.338033 -0.019011 -15.119722 -18.311236 -14.777081 4.404793 -24.331149 -3.803453 33.891299 -39.514358 -69.076954 24.369557 -52.522996 21.234477 -1.158782 15.487376 
0.187479 -0.046153 1.008225 -64.235854 1.096482 92.139497 6.784630 -2.868962 -4.494631 -13.476828 -16.004279 49.377121 -13.801013 -3.728307 0.508379 0.000000 -0.000000 0.000000 9.573962 0.954363 -10.448934 1.190829 -3.978263 10.043759 -5.206638 -16.201060 -5.767900 0.000000 -0.000000 0.000000 2.591761 -1.558561 10.313070 -3.373943 0.401345 -7.298934 -1.252830 -3.171727 1.827949 7.056025 -21.393939 -1.520246 -1.025553 -2.628609 3.183066 -14.142800 9.378775 1.805375 -64.093144 7.301713 -0.791470 24.551582 -32.566656 -1.130725 8.763332 -14.687324 -24.835255 -15.254607 3.210519 -22.832873 -3.929780 33.348648 -36.920365 -60.355717 30.630326 -49.531585 3.174773 12.130097 -4.031402 
0.152998 -0.050552 1.009383 -67.755657 0.906868 90.835615 6.679681 -2.337171 -5.354390 -12.019342 -13.287965 48.673655 -9.426326 0.074135 -2.485815 0.000000 -0.000000 0.000000 10.425199 0.288300 -6.533598 1.161437 -1.180336 9.624085 -5.139310 -15.525083 -7.009994 0.000000 -0.000000 0.000000 1.874396 -0.820771 9.818229 -3.702042 0.404197 -6.685089 -0.883532 -2.730280 2.142474 6.577811 -22.307515 0.320904 -0.530763 -0.844168 3.814754 -13.860020 9.907769 2.094126 -65.088884 8.900635 -1.859846 24.364925 -31.068295 -1.652758 8.075770 -13.628039 -24.696238 -16.202625 3.427009 -22.107795 -3.509675 33.084891 -34.586641 -55.297562 36.854145 -42.498789 11.248189 10.525959 -1.338975 
0.122397 -0.052972 1.009535 -71.431868 0.624262 90.072292 6.338960 -2.661795 -7.107031 -10.234298 -10.702197 46.734959 -7.382525 1.893850 -7.015396 0.000000 -0.000000 0.000000 10.730070 -0.217008 -3.168542 1.145582 1.030576 8.912587 -4.402286 -14.451344 -8.018543 0.000000 -0.000000 0.000000 1.480873 0.484470 9.986967 -4.192876 0.838191 -7.475975 -0.690211 -2.358776 2.668186 6.260974 -22.486499 1.647720 -0.318123 -1.019321 4.633935 -13.372732 10.463398 2.086655 -66.062724 9.253241 -2.002784 23.761182 -28.916296 -0.511357 8.667355 -13.611595 -24.270274 -16.987754 3.079546 -21.427617 -2.237533 33.258595 -30.658200 -49.450244 44.374034 -34.603781 10.265182 14.128725 -3.062307 
0.094788 -0.056702 1.008993 -75.332636 0.202716 89.440201 5.786026 -3.432019 -8.909804 -9.268932 -8.963240 43.161217 -5.596923 3.956716 -10.358111 0.000000 -0.000000 0.000000 10.185383 -0.541440 -0.290142 1.525689 2.710002 8.503912 -3.481655 -13.047071 -8.925370 0.000000 -0.000000 0.000000 1.537007 1.738856 10.302076 -4.877383 1.451720 -8.089778 -0.844275 -1.497306 3.186605 6.370137 -22.328989 1.690889 -0.319664 -1.750740 5.774598 -13.743840 10.667141 1.340014 -65.957317 9.298613 -1.178719 23.179579 -27.520737 0.378582 9.534235 -13.615183 -23.278462 -17.001011 3.492518 -20.783373 -1.801617 34.221456 -27.119604 -42.446773 50.824596 -25.662137 5.878394 16.381032 -4.612936 
